<?xml version="1.0" encoding="UTF-8"?>
<!-- Generator: Adobe Illustrator 25.3.1, SVG Export Plug-In . SVG Version: 6.00 Build 0)  -->
<svg xmlns="http://www.w3.org/2000/svg" xmlns:xlink="http://www.w3.org/1999/xlink" version="1.1" id="Capa_1" x="0px" y="0px" viewBox="0 0 512 512" style="enable-background:new 0 0 512 512;" xml:space="preserve" width="512" height="512">
<g>
	<g>
		<path style="fill:#FFFFFF;" d="M262.62,505.381c-75.476,0-148.252-35.175-195.209-94.228c-2.196-0.493-4.514-0.931-6.923-1.385    c-8.51-1.606-18.156-3.426-27.093-8.816c-6.873-4.144-12.903-10.123-18.439-18.272C4.58,367.418-0.705,349.458,0.076,332.114    c0.689-15.303,6.275-30.14,15.551-41.734c-1.571-11.384-2.365-22.917-2.365-34.381c0-43.575,11.341-86.21,32.859-123.791    C37.583,110.995,39,85.903,50.293,66.209C57.028,54.476,66.88,44.631,79.58,36.938c24.375-14.766,58.275-20.993,85.588-10.545    C196.01,13.268,228.762,6.619,262.62,6.619c31.826,0,62.742,5.899,92.016,17.545c3.14-2.103,6.502-3.948,10.053-5.522    c17.235-7.638,37.71-7.76,55.844-3.372c13.022,3.032,25.611,8.402,36.637,15.994c12.08,8.287,21.361,18.674,27.417,30.756    c11.507,22.989,9.94,51.786-3.556,73.542C501.316,172.307,512,213.747,512,255.999c0,79.594-38.879,155.68-103.446,202.242    C366.199,488.785,314.839,505.381,262.62,505.381z"/>
	</g>
	<g>
		<g>
			<path style="fill:#FFA71D;" d="M497.313,256.322c0,82.94-42.906,155.883-107.745,197.785     c-8.759,5.676-17.891,10.768-27.398,15.229c-2.055,0.981-4.158,1.939-6.26,2.826c0,0-58.94-32.302-92.341-32.302     c-25.552,0-74.777,40.22-74.777,40.22c-4.438-1.425-8.806-3.013-13.127-4.718c-11.421-4.508-22.423-9.88-32.91-16.069     c-69.51-40.898-116.153-116.48-116.153-202.971c0-129.981,105.363-235.366,235.343-235.366     C391.951,20.956,497.313,126.342,497.313,256.322z"/>
		</g>
		<g>
			<g>
				<g>
					<g>
						<path style="fill:#58304D;" d="M190.713,89.271c-0.027,0.321-0.053,0.669-0.107,1.017c-0.857,7.309-3.079,14.591-6.345,21.284        c-0.268,0.589-0.562,1.178-0.857,1.767c-1.017,1.954-2.115,3.828-3.293,5.649c-3.668,5.729-8.648,12.235-14.43,18.5        c-0.214,0.241-0.455,0.482-0.669,0.723c-7.657,8.192-16.652,15.903-25.835,20.802c-0.321,0.188-0.669,0.348-0.991,0.509        c-3.855,1.981-7.764,3.454-11.592,4.257c-7.871,1.606-15.983,1.472-23.8-0.161c-0.482-0.08-0.937-0.188-1.419-0.321        c-6.05-1.392-11.887-3.721-17.295-6.827c-0.536-0.295-1.044-0.616-1.58-0.937c-7.389-4.551-13.841-10.629-18.66-17.911        c-12.449-18.767-13.252-44.602-2.061-64.119c5.81-10.12,14.403-18.205,24.389-24.256c0.428-0.268,0.884-0.535,1.339-0.75        c4.257-2.517,8.755-4.632,13.386-6.345c0.482-0.214,0.964-0.402,1.472-0.562c5.328-1.928,10.843-3.373,16.385-4.337        c1.606-0.295,3.24-0.535,4.873-0.723c0.509-0.08,0.991-0.134,1.499-0.188h0.027c5.355-0.643,10.763-0.803,16.117-0.402        c0.321,0.027,0.669,0.053,0.991,0.08c2.865,0.241,5.703,0.643,8.514,1.231c0.268,0.08,0.536,0.134,0.803,0.188        c1.392,0.321,2.784,0.669,4.176,1.098c2.972,0.883,5.863,2.035,8.674,3.427c0.214,0.08,0.402,0.187,0.616,0.321        c8.192,4.123,15.314,10.254,19.945,18.125C190.097,69.138,191.704,79.205,190.713,89.271z"/>
					</g>
				</g>
				<g>
					<g>
						<path style="fill:#7B50B6;" d="M74.789,140.004c2.383,5.836,5.515,11.351,9.29,16.465c-0.536-0.295-1.044-0.616-1.58-0.937        c-3.32-4.739-6.131-9.852-8.326-15.26c-9.959-24.416-7.603-54.856,6.291-81.414c1.767-3.4,3.695-6.613,5.703-9.611        c0.428-0.268,0.884-0.535,1.339-0.75c-2.302,3.293-4.444,6.854-6.452,10.682C67.24,85.576,64.911,115.775,74.789,140.004z"/>
					</g>
				</g>
				<g>
					<g>
						<path style="fill:#7B50B6;" d="M102.793,163.617c-0.482-0.08-0.937-0.188-1.419-0.321        c-11.914-10.173-20.132-25.594-23.265-43.451c-3.507-20.052-0.294-40.854,9.022-58.524        c3.668-6.961,8.326-13.413,13.761-19.169c0.482-0.214,0.964-0.402,1.472-0.562c-5.836,5.943-10.789,12.717-14.644,20.026        c-9.236,17.562-12.422,38.204-8.969,58.096c3.133,17.91,11.459,33.331,23.426,43.424        C102.365,163.296,102.579,163.483,102.793,163.617z"/>
					</g>
				</g>
				<g>
					<g>
						<path style="fill:#7B50B6;" d="M139.176,159.012c-0.321,0.188-0.669,0.348-0.991,0.509c-5.622-0.991-11.057-2.731-16.17-5.301        c-24.041-12.021-38.713-41.042-34.161-67.519c3.4-19.838,16.626-38.016,35.768-50.171c0.509-0.08,0.991-0.134,1.499-0.188        c-19.597,12.074-33.171,30.44-36.598,50.466c-4.525,26.21,10.013,54.936,33.786,66.823        C127.611,156.282,133.313,158.075,139.176,159.012z"/>
					</g>
				</g>
				<g>
					<g>
						<path style="fill:#7B50B6;" d="M184.261,111.572c-0.268,0.589-0.562,1.178-0.857,1.767        c-6.238,5.863-15.581,12.181-26.023,10.789c-8.273-1.071-16.144-7.255-21.096-16.492c-7.202-13.493-7.577-30.895-1.017-46.583        c4.096-9.745,8.915-17.268,15.501-23.801c0.268,0.08,0.536,0.134,0.803,0.188c-6.666,6.506-11.539,14.055-15.662,23.881        c-6.506,15.501-6.158,32.689,0.964,45.995c4.846,9.049,12.529,15.099,20.588,16.144c10.629,1.392,20.186-5.435,26.317-11.405        L184.261,111.572z"/>
					</g>
					<g>
						<path style="fill:#7B50B6;" d="M165.681,137.487c-0.214,0.241-0.455,0.482-0.669,0.723c-0.669,0-1.339,0.027-2.008,0.027        c-9.397,0-18.366-2.865-25.219-8.353c-10.495-8.353-14.912-21.578-16.786-31.217c-3.213-16.492-1.285-32.635,5.408-45.405        c3.695-7.014,8.835-12.958,14.858-17.322c0.321,0.027,0.669,0.053,0.991,0.08c-6.184,4.39-11.485,10.388-15.26,17.562        c-6.639,12.636-8.54,28.593-5.354,44.977c1.847,9.504,6.238,22.569,16.545,30.815        C145.575,135.266,155.481,138.077,165.681,137.487z"/>
					</g>
				</g>
				<g>
					<g>
						<path style="fill:#7B50B6;" d="M190.713,89.271c-0.027,0.321-0.053,0.669-0.107,1.017c-3.936,3.534-7.684,5.381-11.566,5.729        c-0.428,0.053-0.884,0.08-1.339,0.08c-4.685,0-9.719-2.249-14.296-6.425c-5.783-5.247-9.451-11.914-10.334-18.794        c-1.044-7.871,1.526-16.411,7.175-24.015c1.285-1.74,2.704-3.373,4.176-4.899c0.214,0.08,0.402,0.187,0.616,0.321        c-1.499,1.553-2.945,3.213-4.257,4.98c-5.462,7.362-8.032,15.929-7.068,23.533c0.884,6.72,4.471,13.225,10.147,18.392        c2.811,2.57,8.54,6.773,15.126,6.158C182.895,95,186.67,93.046,190.713,89.271z"/>
					</g>
				</g>
			</g>
			<g>
				<g>
					<g>
						<path style="fill:#58304D;" d="M341.764,77.083c0.009,0.323,0.016,0.671,0.049,1.022c0.442,7.346,2.25,14.741,5.132,21.608        c0.234,0.603,0.495,1.208,0.756,1.813c0.905,2.009,1.895,3.942,2.968,5.826c3.338,5.927,7.943,12.704,13.362,19.285        c0.2,0.253,0.427,0.507,0.627,0.76c7.182,8.612,15.727,16.818,24.619,22.229c0.31,0.205,0.649,0.385,0.96,0.564        c3.737,2.196,7.556,3.887,11.333,4.905c7.768,2.048,15.874,2.373,23.771,1.184c0.486-0.053,0.946-0.134,1.435-0.241        c6.119-1.048,12.078-3.044,17.653-5.839c0.551-0.264,1.077-0.556,1.63-0.846c7.635-4.126,14.42-9.829,19.642-16.828        c13.49-18.034,15.751-43.782,5.681-63.9c-5.228-10.432-13.352-18.99-22.98-25.595c-0.412-0.291-0.852-0.584-1.294-0.824        c-4.108-2.753-8.479-5.119-13.006-7.091c-0.469-0.241-0.939-0.455-1.438-0.645c-5.21-2.225-10.635-3.98-16.113-5.256        c-1.587-0.385-3.204-0.718-4.824-0.997c-0.503-0.109-0.981-0.19-1.486-0.272l-0.027-0.001        c-5.309-0.944-10.7-1.41-16.068-1.312c-0.322,0.009-0.671,0.016-0.994,0.024c-2.874,0.079-5.73,0.319-8.57,0.748        c-0.272,0.065-0.542,0.104-0.812,0.142c-1.408,0.242-2.818,0.511-4.232,0.86c-3.017,0.714-5.969,1.7-8.854,2.931        c-0.218,0.068-0.412,0.164-0.633,0.286c-8.412,3.653-15.868,9.372-20.938,16.969        C343.516,57.017,341.343,66.977,341.764,77.083z"/>
					</g>
				</g>
				<g>
					<g>
						<path style="fill:#7B50B6;" d="M454.635,134.285c-2.709,5.693-6.147,11.022-10.206,15.914c0.551-0.264,1.077-0.556,1.63-0.846        c3.582-4.543,6.678-9.49,9.175-14.765c11.323-23.814,10.691-54.339-1.681-81.64c-1.572-3.494-3.315-6.811-5.15-9.918        c-0.412-0.291-0.852-0.584-1.294-0.824c2.113,3.418,4.05,7.094,5.838,11.03C465.248,80.371,465.867,110.653,454.635,134.285z"/>
					</g>
				</g>
				<g>
					<g>
						<path style="fill:#7B50B6;" d="M425.342,156.278c0.486-0.053,0.946-0.134,1.435-0.241        c12.47-9.484,21.547-24.416,25.683-42.067c4.635-19.822,2.602-40.773-5.701-58.94c-3.269-7.157-7.555-13.862-12.656-19.916        c-0.469-0.241-0.939-0.455-1.438-0.645c5.491,6.264,10.053,13.306,13.489,20.821c8.229,18.056,10.244,38.844,5.672,58.509        c-4.139,17.705-13.323,32.631-25.842,42.031C425.788,155.981,425.564,156.156,425.342,156.278z"/>
					</g>
				</g>
				<g>
					<g>
						<path style="fill:#7B50B6;" d="M389.277,149.625c0.31,0.205,0.649,0.385,0.96,0.564c5.669-0.671,11.194-2.102,16.444-4.379        c24.682-10.643,40.97-38.789,37.922-65.481c-2.274-19.999-14.451-38.895-32.876-52.112c-0.503-0.109-0.981-0.19-1.486-0.272        c18.884,13.162,31.398,32.266,33.688,52.453c3.036,26.424-13.101,54.283-37.508,64.808        C400.979,147.552,395.184,149.02,389.277,149.625z"/>
					</g>
				</g>
				<g>
					<g>
						<path style="fill:#7B50B6;" d="M346.945,99.713c0.234,0.603,0.495,1.208,0.756,1.813c5.897,6.206,14.868,13.042,25.371,12.242        c8.32-0.602,16.528-6.332,21.994-15.273c7.953-13.065,9.31-30.418,3.648-46.452c-3.539-9.961-7.925-17.744-14.132-24.638        c-0.272,0.065-0.542,0.104-0.812,0.142c6.288,6.872,10.726,14.685,14.287,24.728c5.619,15.844,4.301,32.984-3.561,45.867        c-5.349,8.761-13.363,14.367-21.467,14.954c-10.69,0.789-19.847-6.567-25.631-12.874L346.945,99.713z"/>
					</g>
					<g>
						<path style="fill:#7B50B6;" d="M364.031,126.637c0.2,0.253,0.427,0.507,0.627,0.76c0.668,0.038,1.335,0.103,2.003,0.14        c9.382,0.531,18.498-1.823,25.651-6.915c10.95-7.747,16.108-20.701,18.523-30.218c4.139-16.284,3.127-32.511-2.834-45.638        c-3.292-7.212-8.088-13.436-13.856-18.134c-0.322,0.009-0.671,0.016-0.994,0.024c5.926,4.733,10.88,11.02,14.243,18.397        c5.915,12.991,6.911,29.029,2.805,45.208c-2.381,9.385-7.503,22.181-18.26,29.831        C384.23,125.554,374.182,127.801,364.031,126.637z"/>
					</g>
				</g>
				<g>
					<g>
						<path style="fill:#7B50B6;" d="M341.764,77.083c0.009,0.323,0.016,0.671,0.049,1.022c3.73,3.751,7.367,5.807,11.223,6.374        c0.424,0.078,0.878,0.13,1.332,0.156c4.678,0.265,9.83-1.696,14.637-5.607c6.07-4.912,10.109-11.361,11.379-18.18        c1.487-7.799-0.596-16.471-5.807-24.381c-1.185-1.81-2.509-3.521-3.893-5.128c-0.218,0.068-0.412,0.164-0.633,0.286        c1.409,1.635,2.759,3.374,3.969,5.212c5.037,7.659,7.119,16.358,5.727,23.895c-1.262,6.659-5.211,12.952-11.17,17.79        c-2.952,2.407-8.909,6.28-15.45,5.293C349.245,83.245,345.586,81.08,341.764,77.083z"/>
					</g>
				</g>
			</g>
			<g>
				<g>
					<path style="fill:#FFACA9;" d="M389.568,454.108c-8.759,5.676-17.891,10.768-27.398,15.229       c-7.247-20.111-14.53-40.208-21.797-60.311c-0.844-2.335-1.689-4.669-2.541-7.006c-0.462-1.969,4.809-4.653,6.058-5.447       c2.462-1.566,4.689-3.28,6.952-5.13c0.001-0.001,11.515-9.413,11.515-9.413c8.923,23.502,17.8,47.022,26.627,70.561       L389.568,454.108z"/>
				</g>
				<g>
					<path style="fill:#FFACA9;" d="M218.153,402.653c0,0-3.033,5.179-3.036,5.185c-10.951,18.7-21.878,37.414-32.801,56.131       c-0.428,0.733-6.376,11.504-6.649,11.394c-11.421-4.508-22.423-9.88-32.91-16.069c0,0,0.467-0.747,0.467-0.747       c13.56-22.599,27.256-45.117,40.889-67.672c0.349-0.577,0.698-1.155,1.047-1.732c0.818,0,4.202-6.955,4.765-7.884       c1.071-1.767,2.142-3.534,3.212-5.302c-0.123,0.204,3.501,3.737,3.754,4.006c2.069,2.202,4.131,4.41,6.195,6.616       c4.264,4.556,8.528,9.112,12.792,13.668C216.633,401.052,217.392,401.853,218.153,402.653z"/>
				</g>
				<g>
					<g>
						<g>
							<rect x="256.704" y="298.057" style="fill:#FFACA9;" width="23.521" height="41.822"/>
						</g>
						<g>
							<path style="fill:#58304D;" d="M280.226,298.057v21.013c-1.587,1.229-3.276,2.278-5.145,2.943         c-7.166,2.611-13.488,0.87-18.377-3.148v-20.809H280.226z"/>
						</g>
					</g>
					<g>
						<g>
							<g>
								<path style="fill:#FFACA9;" d="M127.575,260.083c-1.378,1.822-3.106,3.34-5.045,4.578c-1.098,0.7-2.266,1.331-3.457,1.845          c-11.211,4.882-25.132,1.752-33.961-6.703c-8.829-8.479-12.543-21.605-10.534-33.68c0.934-5.559,3.106-11.071,7.171-14.995          c4.718-4.531,11.655-6.4,18.172-5.699c4.952,0.514,9.623,2.382,13.664,5.209c0.607,0.42,1.191,0.864,1.775,1.331          c2.966,2.359,5.489,5.255,7.404,8.502c0.584,0.981,1.121,2.009,1.588,3.06C129.21,234.39,135.82,249.105,127.575,260.083z"/>
							</g>
							<g>
								<path style="fill:#58304D;" d="M121.297,259.172c-0.517,0-1.002-0.315-1.196-0.826          c-5.122-13.503-13.703-25.515-24.817-34.736c-2.794-2.32-6.174-4.82-10.069-5.787c-0.685-0.171-1.103-0.867-0.933-1.551          c0.17-0.689,0.868-1.099,1.551-0.935c4.393,1.093,8.07,3.8,11.086,6.302c11.453,9.505,20.297,21.883,25.574,35.799          c0.251,0.661-0.082,1.4-0.742,1.651C121.602,259.144,121.448,259.172,121.297,259.172z"/>
							</g>
						</g>
						<g>
							<g>
								<path style="fill:#FFACA9;" d="M448.498,251.511c-8.829,8.479-22.75,11.585-33.961,6.703          c-0.514-0.21-1.004-0.467-1.495-0.701c-2.733-1.401-5.185-3.27-7.03-5.699c-8.245-10.978-1.635-25.692,3.223-36.577          c0.514-1.121,1.074-2.242,1.752-3.293c2.359-3.924,5.629-7.334,9.483-9.903c0.327-0.234,0.654-0.444,1.004-0.631          c3.69-2.289,7.848-3.784,12.192-4.251c6.54-0.701,13.453,1.145,18.195,5.699c4.064,3.901,6.213,9.436,7.147,14.995          C461.017,229.929,457.303,243.056,448.498,251.511z"/>
							</g>
							<g>
								<path style="fill:#58304D;" d="M411.479,251.259c-0.12,0-0.242-0.016-0.363-0.052c-0.679-0.201-1.065-0.912-0.864-1.59          c3.058-10.335,7.047-18.763,12.196-25.763c6.131-8.337,13.88-14.45,22.408-17.68c0.659-0.244,1.399,0.082,1.649,0.744          c0.251,0.661-0.082,1.4-0.744,1.651c-8.065,3.052-15.413,8.861-21.251,16.799c-4.97,6.758-8.832,14.929-11.804,24.974          C412.542,250.899,412.032,251.259,411.479,251.259z"/>
							</g>
						</g>
						<g>
							<path style="fill:#FFACA9;" d="M420.469,202.041c-0.023,0.327-0.047,0.631-0.07,0.957         c-0.784,10.969-2.231,21.879-3.55,32.793c-0.864,7.147-1.939,14.621-3.807,21.722c-0.234,0.934-0.491,1.869-0.771,2.803         c-1.477,4.922-3.343,9.694-6.003,14.108c-11.445,18.989-36.296,26.23-56.734,29.593c-2.85,0.467-5.676,0.864-8.549,1.238         c-20.134,2.499-40.501,2.406-60.751,3.223c-0.21,0-0.444,0.023-0.654,0.023c-8.081,0.327-15.672,0.63-22.866,0.864         c-20.437,0.631-37.931,0.677-55.379-0.818c-12.118-1.038-24.199-2.817-36.11-5.278         c-18.756-3.877-31.485-15.859-39.356-31.181c-6.274-12.213-9.235-26.038-10.207-39.66c-0.444-6.213-0.561-12.496-0.35-18.779         c0-0.561,0.023-1.121,0.047-1.682l38.96-82.025l50.024-21.514L256,87.089l61.052,4.703l52.155,26.425l40.464,36.251         L420.469,202.041z"/>
						</g>
						<g style="opacity:0.53;">
							<g>
								<path style="fill:#FF676C;" d="M207.69,286.283c0,8.165-2.329,15.818-6.347,22.267c-11.748-0.998-23.496-2.662-36.114-5.272          c-18.761-3.891-31.481-15.869-39.365-31.2c5.836-16.278,21.397-27.924,39.672-27.924          C188.827,244.155,207.69,263.018,207.69,286.283z"/>
							</g>
							<g>
								<path style="fill:#FF676C;" d="M412.294,260.305c-1.51,5.068-3.43,9.854-6.015,14.128          c-11.466,18.991-36.319,26.209-56.743,29.587c-2.841,0.461-5.682,0.87-8.549,1.229c-4.53-6.706-7.167-14.82-7.167-23.521          c0-23.291,18.863-42.154,42.154-42.154C391.434,239.574,404.948,247.892,412.294,260.305z"/>
							</g>
						</g>
						<g>
							<path style="fill:#58304D;" d="M207.479,229.875c0,8.18-6.632,14.812-14.812,14.812c-8.181,0-14.812-6.632-14.812-14.812         s6.632-14.812,14.812-14.812C200.848,215.063,207.479,221.695,207.479,229.875z"/>
						</g>
						<g>
							<circle style="fill:#58304D;" cx="346.888" cy="229.875" r="14.812"/>
						</g>
						<g>
							<path style="fill:#FFFFFF;" d="M247.761,237.483c8.843,19.609,42.274,19.076,50.663-2.18L247.761,237.483z"/>
						</g>
					</g>
				</g>
				<g>
					<g>
						<path style="fill:#58304D;" d="M179.182,190.525c-0.455,0.271-0.902,0.552-1.338,0.843c-3.128,2.085-5.323,4.702-7.021,7.823        c-0.619,1.139,0.332,2.509,1.62,2.359l20.317-2.361c3.875-0.45,17.937,0.239,18.972-5.043        c1.425-7.281-11.928-8.518-16.567-8.367C189.681,185.957,183.941,187.692,179.182,190.525z"/>
					</g>
					<g>
						<path style="fill:#58304D;" d="M357.225,190.525c0.455,0.271,0.902,0.552,1.338,0.843c3.128,2.085,5.323,4.702,7.021,7.823        c0.619,1.139-0.332,2.509-1.62,2.359l-20.317-2.361c-3.875-0.45-17.937,0.239-18.972-5.043        c-1.425-7.281,11.928-8.518,16.567-8.367C346.725,185.957,352.465,187.692,357.225,190.525z"/>
					</g>
				</g>
				<g>
					<g>
						<circle style="fill:#FFE7E1;" cx="420.384" cy="252.346" r="2.982"/>
					</g>
					<g>
						<circle style="fill:#FFE7E1;" cx="110.882" cy="259.701" r="2.982"/>
					</g>
				</g>
			</g>
			<g>
				<g>
					<path style="fill:#58304D;" d="M295.067,104.083c-0.304,9.81-2.99,20.881-11.632,25.529       c-5.302,2.873-11.912,2.569-17.471,0.257c-5.582-2.336-10.184-6.493-14.108-11.071c-2.803-3.316-5.349-6.913-8.806-9.529       c-3.433-2.616-8.128-4.134-12.169-2.523c-5.372,2.102-7.427,8.572-8.292,14.271c-1.752,11.351-1.448,23.1-4.835,34.078       c-3.387,10.977-11.795,21.558-23.217,22.773c-7.007,0.747-13.921-2.149-19.807-6.026c-5.863-3.854-11.001-8.759-16.794-12.729       c-2.102-1.448-4.625-2.826-7.1-2.196c-1.448,0.374-2.639,1.401-3.667,2.476c-5.933,6.259-8.035,15.205-8.642,23.801       c-0.607,8.595,0.023,17.307-1.495,25.786c-0.888,4.928-3.106,10.37-7.871,11.912c-2.102,0.677-4.344,0.42-6.4-0.42       c-1.495-0.584-2.896-1.495-4.064-2.593c-1.331-1.238-2.429-2.686-3.387-4.228c-0.631-0.958-1.191-1.985-1.728-3.013       c0.607,0.42,1.191,0.864,1.775,1.331c0.327-8.969,1.238-17.938,2.593-26.837c1.495-9.927,3.527-19.736,5.863-29.336       c6.54-26.744,27.257-47.601,51.221-59.934c30.831-15.859,68.225-21.955,102.583-21.909c3.901,0,7.825,0.094,11.725,0.257       C293.852,83.225,295.37,93.876,295.067,104.083z"/>
				</g>
				<g>
					<path style="fill:#58304D;" d="M421.474,201.41c-0.327,0.537-0.701,1.075-1.074,1.588c-1.565,2.219-3.363,4.275-5.419,6.12       c-1.191,1.074-2.546,2.032-3.994,2.826c-4.578,2.476-10.067,3.247-13.734-0.14c-2.569-2.359-3.387-6.049-3.784-9.53       c-0.584-5.325-0.467-10.744,0.35-16.069c0.701-4.414,1.869-8.806,1.542-13.267c-0.327-4.461-2.569-9.132-6.75-10.744       c-7.381-2.85-14.364,4.998-22.096,6.633c-9.903,2.079-19.246-6.867-21.909-16.607c-2.663-9.74-0.677-20.063,0.163-30.13       c0.28-3.223,0.35-6.75-1.471-9.436c-3.27-4.835-10.581-4.321-15.999-2.149c-8.549,3.433-15.789,7.404-24.034,0.934       c-6.19-4.858-10.043-12.683-12.332-20.04c-2.032-6.493-2.406-12.216-1.401-17.191c1.378,0.07,2.803,0.163,4.181,0.257       c0.304,0,0.654,0.047,0.958,0.093c3.036,0.187,6.073,0.42,9.109,0.748c0.28,0.023,0.584,0.047,0.911,0.093       c11.281,1.168,22.469,3.083,33.354,5.746c20.694,5.068,41.809,12.729,57.318,27.935c16.14,15.836,23.17,38.772,25.109,60.798       c0.958,10.698,0.771,21.442,0,32.163C420.796,201.808,421.123,201.597,421.474,201.41z"/>
				</g>
			</g>
			<g>
				<path style="fill:#FFE7E1;" d="M366.071,391.839l-27.187,11.188l1.448,5.909l15.579,63.227      c-28.776,12.566-60.564,19.526-93.964,19.526c-25.552,0-50.147-4.064-73.154-11.609l24.665-69.346l0.023-0.07l0.163-0.491      l-33.073-13.43l-27.141-11.024c0,0,66.777-47.111,77.521-50.077c10.721-2.99,25.646-5.372,25.646-5.372s0.047,0.047,0.117,0.14      c1.004,1.238,9.389,10.511,23.333-0.631c0,0,0.07,0,0.187,0c2.593,0.047,31.135,0.771,41.949,6.446      c11.328,5.979,70.374,44.728,70.374,44.728L366.071,391.839z"/>
			</g>
			<g>
				<g>
					<path style="fill:#A2B7FF;" d="M323.318,400.585h-99.08c1.401-1.518,3.083-2.803,4.952-3.667       c5.115-2.429,11.468-1.986,16.186,1.121c2.499-8.011,7.848-15.229,15.205-19.293c7.357-4.04,16.677-4.648,24.198-0.911       c7.007,3.504,11.959,10.464,14.037,18.055c4.017-3.597,9.95-4.858,15.112-3.27C317.946,393.858,321.38,396.848,323.318,400.585       z"/>
				</g>
			</g>
		</g>
		<g>
			<g>
				<path style="fill:#FF676C;" d="M64.098,290.402c-5.322-3.081-11.399-5.4-17.509-4.711c-5.747,0.648-10.906,3.895-15.186,7.785      c-11.01,10.007-17.331,24.726-17.999,39.59c-0.669,14.864,4.108,29.757,12.471,42.063c3.769,5.547,8.342,10.682,14.085,14.146      c9.929,5.988,22.121,6.373,33.32,9.378c8.444,2.265,16.508,6.086,25.178,7.21c14.725,1.909,29.791-4.449,40.404-14.834      c10.612-10.384,17.118-24.402,20.602-38.835c1.634-6.766,2.652-13.79,1.72-20.688c-2.216-16.391-16.436-30.267-32.824-32.506      c-13.43-1.835-24.507,3.953-34.347,12.391c-6.52,5.592-9.144-1.853-13.306-6.89C76.058,298.874,70.417,294.06,64.098,290.402z"/>
			</g>
			<g>
				<g>
					<path style="fill:#FFE7E1;" d="M132.074,325.103c-0.906,6.58,0.242,13.652,4.257,18.943c1.401,1.846,3.289,3.526,5.589,3.812       c3.145,0.39,6.038-1.963,7.65-4.691c2.228-3.77,2.764-8.347,2.348-12.707c-0.555-5.816-3.676-12.836-10.139-14.078       C136.383,315.345,132.744,320.239,132.074,325.103z"/>
				</g>
				<g>
					<path style="fill:#FFE7E1;" d="M149.217,361.133c-0.201,3.287-3.028,5.79-6.316,5.589c-3.287-0.201-5.79-3.028-5.589-6.316       c0.201-3.287,3.028-5.789,6.316-5.589C146.915,355.018,149.417,357.846,149.217,361.133z"/>
				</g>
			</g>
			<g>
				<path style="fill:#7B50B6;" d="M90.418,273.963l-1.862,39.393c-0.026,0.554,0.788,0.636,0.872,0.087l6.099-39.609      L90.418,273.963z"/>
			</g>
		</g>
		<g>
			<g>
				<polygon style="fill:#FFE7E1;" points="402.692,360.483 403.885,336.033 362.737,321.721 472.465,251.948 455.767,375.988       426.546,350.941     "/>
			</g>
			<g>
				<path style="fill:#A2B7FF;" d="M455.767,376.572c-0.138,0-0.276-0.048-0.387-0.146l-36.079-31.903      c-0.206-0.182-0.258-0.484-0.122-0.725l39.941-70.951l-44.313,67.087c-0.148,0.221-0.428,0.315-0.679,0.23l-51.583-17.892      c-0.305-0.105-0.465-0.438-0.36-0.744c0.107-0.306,0.437-0.47,0.744-0.36l51.155,17.743l53.123-80.426      c0.174-0.262,0.527-0.34,0.792-0.176c0.268,0.162,0.358,0.509,0.204,0.785l-47.774,84.865l35.725,31.591      c0.242,0.214,0.265,0.584,0.051,0.826C456.089,376.505,455.928,376.572,455.767,376.572z"/>
			</g>
		</g>
		<g>
			<g>
				<g>
					<path style="fill:#FFE7E1;" d="M143.325,119.473c0,0-11.927-46.515,1.193-46.515       C157.638,72.958,143.325,119.473,143.325,119.473z"/>
				</g>
				<g>
					<path style="fill:#FFE7E1;" d="M143.981,123.447c0,0,18.191,44.441,5.195,46.239       C136.18,171.485,143.981,123.447,143.981,123.447z"/>
				</g>
			</g>
			<g>
				<g>
					<path style="fill:#FFE7E1;" d="M145.031,118.169c0,0,18.707-44.226,29.143-36.274       C184.608,89.847,145.031,118.169,145.031,118.169z"/>
				</g>
				<g>
					<path style="fill:#FFE7E1;" d="M143.144,121.728c0,0-12.469,46.373-23.895,39.926       C107.822,155.207,143.144,121.728,143.144,121.728z"/>
				</g>
			</g>
			<g>
				<g>
					<path style="fill:#FFE7E1;" d="M147.178,118.166c0,0,41.686-23.837,45.165-11.187       C195.823,119.628,147.178,118.166,147.178,118.166z"/>
				</g>
				<g>
					<path style="fill:#FFE7E1;" d="M143.519,119.853c0,0-38.025,29.326-43.205,17.272       C95.133,125.072,143.519,119.853,143.519,119.853z"/>
				</g>
			</g>
			<g>
				<g>
					<path style="fill:#FFE7E1;" d="M146.26,120.966c0,0,47.999,1.405,44.37,14.013C187.001,147.586,146.26,120.966,146.26,120.966z       "/>
				</g>
				<g>
					<path style="fill:#FFE7E1;" d="M142.259,120.497c0,0-47.738,5.187-45.872-7.799C98.254,99.712,142.259,120.497,142.259,120.497       z"/>
				</g>
			</g>
			<g>
				<g>
					<path style="fill:#FFE7E1;" d="M147.06,123.337c0,0,36.542,31.154,25.818,38.71S147.06,123.337,147.06,123.337z"/>
				</g>
				<g>
					<path style="fill:#FFE7E1;" d="M144.234,120.466c0,0-40.468-25.851-30.88-34.806       C122.941,76.704,144.234,120.466,144.234,120.466z"/>
				</g>
			</g>
			<g>
				<circle style="fill:#FFD27B;" cx="144.617" cy="123.15" r="13.815"/>
			</g>
		</g>
		<g>
			<g>
				<polygon style="fill:#FFD27B;" points="253.651,49.84 244.164,27.879 260.298,43.953 276.691,30.858 266.329,49.39       280.199,64.281 264.756,57.558 265.128,80.475 256.439,57.808 234.279,62.144     "/>
			</g>
			<g>
				<polygon style="fill:#FFD27B;" points="443.239,162.281 433.752,140.32 449.886,156.394 466.279,143.299 455.917,161.831       469.787,176.722 454.344,169.999 454.716,192.916 446.027,170.249 423.867,174.585     "/>
			</g>
			<g>
				<polygon style="fill:#FFD27B;" points="401.5,393.679 425.359,395.408 403.651,402.294 407.694,422.882 396.043,405.131       376.429,410.556 389.525,399.964 369.027,389.708 393.145,392.471 399.534,370.814     "/>
			</g>
			<g>
				<polygon style="fill:#FFD27B;" points="182.702,333.183 204.387,323.082 188.774,339.661 202.325,355.679 183.509,345.842       169.014,360.127 175.3,344.501 152.402,345.517 174.815,336.193 169.858,314.165     "/>
			</g>
			<g>
				<polygon style="fill:#FFD27B;" points="68.893,218.324 87.878,232.878 65.957,226.703 58.023,246.126 58.041,224.894       38.673,218.649 55.434,216.995 43.943,197.163 62.576,212.723 79.814,198.14     "/>
			</g>
		</g>
		<g>
			<path style="fill:#A2B7FF;" d="M87.451,313.832c-12.017-2.882-23.598-8.987-31.137-18.779     c-7.539-9.792-10.419-23.571-5.51-34.912C72.686,268.685,87.902,290.346,87.451,313.832z"/>
		</g>
	</g>
</g>















</svg>
