<?xml version="1.0" encoding="UTF-8"?>
<!-- Generator: Adobe Illustrator 25.3.1, SVG Export Plug-In . SVG Version: 6.00 Build 0)  -->
<svg xmlns="http://www.w3.org/2000/svg" xmlns:xlink="http://www.w3.org/1999/xlink" version="1.1" id="Capa_1" x="0px" y="0px" viewBox="0 0 512 512" style="enable-background:new 0 0 512 512;" xml:space="preserve" width="512" height="512">
<g>
	<g>
		<path style="fill:#FFFFFF;" d="M256.034,511.998c-5.631,0.021-11.265-0.152-16.89-0.524    c-83.608-5.525-162.733-54.673-204.772-127.137c-0.455-0.766-0.965-1.652-1.452-2.542c-0.299-0.524-0.596-1.058-0.898-1.598H24.5    c-8.812,0-16.391-5.987-18.432-14.56c-2.009-8.446,1.911-17.072,9.55-21.12c-0.763-2.041-1.475-4.041-2.148-6.015l-0.243-0.714    c-0.22-0.64-0.436-1.278-0.633-1.916c-33.209-100.939,2.725-218.088,86.986-283.053c73.519-56.683,181.667-70.017,265.647-28.884    c55.56,26.111,101.017,72.964,125.602,129.198c37.933,86.765,23.217,192.353-36.984,265.508    C405.976,476.807,331.27,511.719,256.034,511.998z"/>
	</g>
	<g>
		<g>
			<g>
				<g>
					<g>
						<path style="fill:#A2B7FF;" d="M496.393,255.76c0,11.021-0.736,21.877-2.185,32.518c-0.095,0.784-0.19,1.568-0.309,2.352        c-2.019,14.062-5.273,27.744-9.62,40.927c-0.238,0.784-0.523,1.567-0.784,2.352c-4.869,14.299-11.045,28.005-18.409,40.95        c-0.428,0.784-0.879,1.568-1.33,2.328c-8.527,14.703-18.575,28.433-29.953,40.95c-0.689,0.784-1.401,1.568-2.138,2.328        c-14.608,15.772-31.33,29.573-49.691,40.95c-1.259,0.808-2.542,1.591-3.824,2.328c-36.199,21.616-78.504,34.014-123.73,34.014        c-45.226,0-87.53-12.399-123.729-34.014c-1.283-0.736-2.566-1.52-3.824-2.328c-15.582-9.644-29.976-21.045-42.898-33.919        c-0.808-0.784-1.591-1.592-2.375-2.399c-1.496-1.52-2.969-3.064-4.418-4.632c-0.736-0.76-1.449-1.544-2.138-2.328        c-11.378-12.518-21.425-26.247-29.953-40.95c-0.451-0.76-0.903-1.544-1.33-2.328c-7.363-12.945-13.539-26.651-18.409-40.95        c-0.261-0.784-0.546-1.568-0.784-2.352c-4.347-13.183-7.601-26.865-9.62-40.927c-0.119-0.784-0.214-1.567-0.309-2.352        c-1.449-10.641-2.185-21.497-2.185-32.518c0-2.827,0.048-5.629,0.143-8.408c0.024-0.784,0.048-1.568,0.095-2.352        c0.618-13.991,2.399-27.673,5.321-40.95c0.142-0.784,0.309-1.544,0.499-2.328c3.231-14.157,7.696-27.862,13.302-40.95        c0.333-0.784,0.665-1.567,1.021-2.328c6.342-14.442,14.062-28.148,23.017-40.95c0.523-0.784,1.069-1.568,1.639-2.328        c7.268-10.19,15.344-19.81,24.109-28.717c0.76-0.808,1.568-1.615,2.375-2.423c3.42-3.373,6.912-6.651,10.523-9.81        c0.879-0.807,1.758-1.591,2.661-2.328c16.342-14.015,34.56-25.867,54.252-35.107c1.686-0.831,3.373-1.591,5.083-2.328        c29.929-13.302,63.088-20.665,97.934-20.665s68.005,7.364,97.934,20.665c1.71,0.736,3.397,1.496,5.083,2.328        c19.691,9.24,37.91,21.093,54.252,35.107c0.903,0.736,1.781,1.52,2.66,2.328c13.848,12.162,26.271,25.915,37.007,40.95        c0.57,0.76,1.116,1.544,1.639,2.328c8.955,12.803,16.674,26.508,23.017,40.95c0.356,0.76,0.689,1.544,1.021,2.328        c5.605,13.088,10.071,26.794,13.301,40.95c0.19,0.784,0.357,1.544,0.499,2.328c2.922,13.278,4.703,26.96,5.321,40.95        c0.048,0.784,0.071,1.567,0.095,2.352C496.346,250.131,496.393,252.933,496.393,255.76z"/>
					</g>
				</g>
			</g>
			<g style="opacity:0.44;">
				<g>
					<g>
						<g>
							<path style="fill:#FFE7E1;" d="M414.35,74.216H94.491c0.879-0.807,1.758-1.591,2.661-2.328h314.537         C412.592,72.624,413.471,73.408,414.35,74.216z"/>
						</g>
					</g>
				</g>
				<g>
					<g>
						<g>
							<path style="fill:#FFE7E1;" d="M452.996,117.494H55.845c0.523-0.784,1.069-1.568,1.639-2.328h393.873         C451.927,115.926,452.473,116.71,452.996,117.494z"/>
						</g>
					</g>
				</g>
				<g>
					<g>
						<g>
							<path style="fill:#FFE7E1;" d="M452.996,117.494H55.845c0.523-0.784,1.069-1.568,1.639-2.328h393.873         C451.927,115.926,452.473,116.71,452.996,117.494z"/>
						</g>
					</g>
				</g>
				<g>
					<g>
						<g>
							<path style="fill:#FFE7E1;" d="M477.034,160.772H31.807c0.333-0.784,0.665-1.567,1.021-2.328h443.184         C476.369,159.204,476.702,159.988,477.034,160.772z"/>
						</g>
					</g>
				</g>
				<g>
					<g>
						<g>
							<path style="fill:#FFE7E1;" d="M490.835,204.05H18.007c0.142-0.784,0.309-1.544,0.499-2.328h471.83         C490.526,202.506,490.692,203.266,490.835,204.05z"/>
						</g>
					</g>
				</g>
				<g>
					<g>
						<g>
							<path style="fill:#FFE7E1;" d="M496.25,247.352H12.591c0.024-0.784,0.048-1.568,0.095-2.352h483.469         C496.203,245.784,496.227,246.568,496.25,247.352z"/>
						</g>
					</g>
				</g>
				<g>
					<g>
						<g>
							<path style="fill:#FFE7E1;" d="M494.208,288.278c-0.095,0.784-0.19,1.568-0.309,2.352H14.942         c-0.119-0.784-0.214-1.567-0.309-2.352H494.208z"/>
						</g>
					</g>
				</g>
				<g>
					<g>
						<g>
							<path style="fill:#FFE7E1;" d="M484.279,331.556c-0.238,0.784-0.523,1.567-0.784,2.352H25.346         c-0.261-0.784-0.546-1.568-0.784-2.352H484.279z"/>
						</g>
					</g>
				</g>
				<g>
					<g>
						<g>
							<path style="fill:#FFE7E1;" d="M465.086,374.858c-0.428,0.784-0.879,1.568-1.33,2.328H45.085         c-0.451-0.76-0.903-1.544-1.33-2.328H465.086z"/>
						</g>
					</g>
				</g>
				<g>
					<g>
						<g>
							<path style="fill:#FFE7E1;" d="M433.804,418.136c-0.689,0.784-1.401,1.568-2.138,2.328H77.175         c-0.736-0.76-1.449-1.544-2.138-2.328H433.804z"/>
						</g>
					</g>
				</g>
				<g>
					<g>
						<g>
							<path style="fill:#FFE7E1;" d="M381.974,461.414c-1.259,0.808-2.542,1.591-3.824,2.328H130.691         c-1.283-0.736-2.566-1.52-3.824-2.328H381.974z"/>
						</g>
					</g>
				</g>
				<g>
					<g>
						<g>
							<path style="fill:#FFE7E1;" d="M357.438,36.781H151.404c1.686-0.831,3.373-1.591,5.083-2.328h195.868         C354.065,35.189,355.751,35.95,357.438,36.781z"/>
						</g>
					</g>
				</g>
			</g>
			<g>
				<g>
					<g>
						<path style="fill:#FFD27B;" d="M83.969,84.026v343.469c-0.808-0.784-1.591-1.592-2.375-2.399V86.449        C82.354,85.641,83.161,84.833,83.969,84.026z"/>
					</g>
				</g>
			</g>
		</g>
		<g>
			<g>
				<g>
					<path style="fill:#7B50B6;" d="M102.603,315.812l13.747-201.345l333.149-0.809l-7.278,204.579l-71.966,47.708H22.886       c-4.945,0-6.529-6.66-2.113-8.886L102.603,315.812z"/>
				</g>
			</g>
			<g>
				<g>
					<path style="fill:#58304D;" d="M441.739,318.831c-0.002,0-0.002,0-0.005,0l-339.617-2.426       c-0.327-0.002-0.591-0.269-0.589-0.599c0.002-0.327,0.267-0.589,0.594-0.589c0.002,0,0.002,0,0.005,0l339.617,2.426       c0.327,0.002,0.592,0.269,0.589,0.598C442.33,318.569,442.066,318.831,441.739,318.831z"/>
				</g>
			</g>
			<g>
				<g>
					<path style="fill:#58304D;" d="M362.976,358.251L362.976,358.251c0,0-82.025-0.151-164.049-0.378       c-47.622-0.132-85.569-0.264-112.783-0.39c-15.379-0.07-28.197-0.144-37.17-0.218c-14.686-0.123-14.686-0.123-14.686-0.821       c0-0.229,0.132-0.438,0.339-0.536l70.35-33.354c0.081-0.039,0.167-0.058,0.255-0.058h309.293c0.262,0,0.492,0.172,0.568,0.42       c0.077,0.251-0.021,0.522-0.237,0.668l-51.549,34.567C363.208,358.216,363.094,358.251,362.976,358.251z M37.32,355.945       c28.995,0.559,316.671,1.102,325.475,1.118l49.779-33.379H105.367L37.32,355.945z"/>
				</g>
			</g>
			<g>
				<g>
					<g>
						<g>
							<polygon style="fill:#FFD27B;" points="114.733,303.682 126.053,124.979 435.752,125.787 428.475,305.3        "/>
						</g>
					</g>
				</g>
				<g>
					<g>
						<g>
							<path style="fill:#FFFFFF;" d="M245.018,231.567c0,1.204-0.107,2.644-0.315,4.324c-0.211,1.682-0.617,3.287-1.215,4.818         c-0.601,1.533-1.413,2.825-2.431,3.874c-1.023,1.051-2.373,1.577-4.055,1.577c-2.222,0-3.888-0.812-4.999-2.433         c-1.111-1.622-1.907-3.556-2.387-5.809c-0.48-2.252-0.766-4.549-0.854-6.891c-0.09-2.341-0.167-4.201-0.227-5.583         c-4.322,0.721-8.587,1.352-12.788,1.893c-0.121,1.38-0.376,3.092-0.766,5.133c-0.392,2.041-0.99,4.008-1.802,5.899         c-0.81,1.891-1.86,3.528-3.152,4.908c-1.292,1.382-2.867,2.072-4.727,2.072c-1.441,0-2.568-0.524-3.377-1.575         c-0.812-1.051-1.427-2.296-1.847-3.739c-0.422-1.441-0.675-2.927-0.765-4.458c-0.09-1.531-0.135-2.804-0.135-3.827         c0-3.421,0.269-6.799,0.809-10.132c0.541-3.334,1.172-6.65,1.891-9.954c0.362-1.74,0.842-3.781,1.443-6.124         c0.598-2.34,1.334-4.757,2.206-7.251c0.87-2.489,1.891-4.952,3.062-7.383c1.171-2.433,2.508-4.609,4.008-6.53         c1.501-1.923,3.21-3.482,5.134-4.683c1.921-1.202,4.052-1.802,6.395-1.802c2.28,0,4.263,0.51,5.945,1.531         c1.679,1.021,3.152,2.373,4.412,4.053c1.262,1.682,2.31,3.588,3.152,5.72c0.84,2.132,1.545,4.294,2.118,6.483         c0.568,2.194,1.048,4.34,1.44,6.442c0.39,2.101,0.733,3.962,1.034,5.583c0.78,3.904,1.443,7.852,1.983,11.844         C244.749,223.539,245.018,227.547,245.018,231.567z M227.635,209.682c0-0.719-0.044-1.905-0.135-3.556         c-0.09-1.652-0.285-3.303-0.585-4.955c-0.301-1.652-0.765-3.122-1.396-4.414c-0.631-1.29-1.487-1.934-2.568-1.934         c-0.601,0-1.171,0.404-1.712,1.215c-0.541,0.81-1.021,1.833-1.441,3.062c-0.42,1.232-0.795,2.598-1.125,4.099         c-0.332,1.501-0.617,2.941-0.856,4.321c-0.241,1.382-0.42,2.628-0.541,3.739c-0.121,1.111-0.211,1.907-0.271,2.387         c3.605-0.302,7.147-0.752,10.629-1.352V209.682z"/>
						</g>
					</g>
					<g>
						<g>
							<path style="fill:#FFFFFF;" d="M290.682,191.67c0,4.143-1.023,7.91-3.062,11.304c-2.044,3.391-4.774,6.228-8.198,8.511         c1.802,0.36,3.363,0.977,4.683,1.847c1.32,0.87,2.417,1.937,3.289,3.196c0.87,1.262,1.531,2.688,1.981,4.28         c0.45,1.591,0.675,3.257,0.675,4.997c0,3.424-0.796,6.411-2.387,8.963c-1.591,2.552-3.646,4.653-6.17,6.305         c-2.521,1.652-5.328,2.881-8.42,3.693c-3.095,0.81-6.17,1.215-9.232,1.215c-1.682,0-3.363-0.121-5.043-0.36         c-1.682-0.241-3.273-0.663-4.774-1.262c-0.54-0.181-0.99-0.914-1.352-2.206c-0.36-1.292-0.645-2.867-0.854-4.73         c-0.211-1.86-0.376-3.872-0.496-6.034c-0.121-2.162-0.211-4.233-0.271-6.214c-0.06-1.983-0.088-3.723-0.088-5.224         s0-2.552,0-3.152c0-2.101,0-4.219,0-6.351c0-2.129,0.058-4.247,0.179-6.349c0-0.541,0.014-1.38,0.046-2.522         c0.028-1.141,0.058-2.417,0.09-3.827c0.028-1.41,0.088-2.897,0.179-4.458c0.09-1.561,0.211-3.018,0.362-4.37         c0.148-1.35,0.36-2.505,0.629-3.466c0.271-0.96,0.587-1.561,0.946-1.802c1.38-0.9,2.911-1.756,4.593-2.568         c1.682-0.809,3.424-1.515,5.224-2.115c1.802-0.601,3.602-1.081,5.405-1.441c1.802-0.362,3.512-0.54,5.133-0.54         c2.222,0,4.368,0.315,6.439,0.944c2.071,0.631,3.874,1.577,5.405,2.837c1.531,1.262,2.76,2.809,3.693,4.639         C290.216,187.242,290.682,189.327,290.682,191.67z M275.73,196.443c0-1.021-0.315-1.772-0.944-2.252         c-0.631-0.48-1.457-0.721-2.477-0.721c-0.842,0-1.726,0.181-2.658,0.54c-0.93,0.36-1.726,0.842-2.385,1.44         c-0.181,0.181-0.348,0.691-0.496,1.531c-0.151,0.842-0.269,1.788-0.36,2.839c-0.091,1.051-0.151,2.041-0.181,2.972         c-0.03,0.932-0.044,1.547-0.044,1.846c0,0.121,0,0.315,0,0.585c0,0.271,0.014,0.557,0.044,0.856         c0.03,0.301,0.074,0.571,0.135,0.812c0.06,0.239,0.151,0.36,0.271,0.36c1.021,0,2.072-0.373,3.153-1.125         c1.081-0.752,2.055-1.682,2.927-2.793c0.87-1.111,1.589-2.296,2.162-3.558C275.444,198.515,275.73,197.404,275.73,196.443z          M275.37,222.472c0-1.021-0.36-1.742-1.081-2.162c-0.719-0.42-1.531-0.631-2.431-0.631c-0.842,0-1.728,0.195-2.658,0.587         c-0.93,0.39-1.696,0.854-2.296,1.394c-0.179,0.123-0.315,0.422-0.404,0.902c-0.09,0.48-0.151,1.005-0.181,1.575         c-0.033,0.571-0.06,1.111-0.09,1.621c-0.03,0.51-0.044,0.856-0.044,1.037c0,0.121,0,0.36,0,0.719         c0,0.362,0.014,0.735,0.044,1.127c0.03,0.39,0.09,0.752,0.181,1.079c0.09,0.332,0.192,0.496,0.315,0.496         c0.84,0,1.77-0.239,2.791-0.721c1.021-0.478,1.967-1.081,2.837-1.8c0.87-0.721,1.591-1.545,2.162-2.477         C275.085,224.288,275.37,223.372,275.37,222.472z"/>
						</g>
					</g>
					<g>
						<g>
							<path style="fill:#FFFFFF;" d="M334.544,199.055c0,1.141-0.135,2.341-0.406,3.602c-0.269,1.26-0.705,2.431-1.306,3.512         c-0.601,1.081-1.383,1.981-2.341,2.702c-0.963,0.719-2.134,1.081-3.514,1.081c-2.102,0-3.663-0.376-4.683-1.127         c-1.021-0.749-1.742-1.696-2.162-2.837c-0.42-1.139-0.645-2.354-0.675-3.647c-0.03-1.292-0.076-2.508-0.134-3.649         c-0.06-1.139-0.257-2.086-0.585-2.837c-0.332-0.749-1.037-1.125-2.118-1.125c-1.202,0-2.253,0.436-3.152,1.306         c-0.9,0.87-1.682,1.997-2.34,3.377c-0.663,1.382-1.218,2.941-1.668,4.683c-0.45,1.742-0.81,3.468-1.081,5.18         c-0.269,1.71-0.466,3.331-0.585,4.862c-0.12,1.531-0.181,2.779-0.181,3.739c0,1.26,0.046,2.763,0.134,4.502         c0.091,1.742,0.376,3.408,0.856,4.999c0.48,1.591,1.201,2.944,2.162,4.053c0.96,1.111,2.343,1.668,4.143,1.668         c1.201,0,2.373-0.151,3.514-0.452c1.139-0.299,2.28-0.643,3.421-1.034c1.139-0.39,2.296-0.735,3.468-1.037         c1.172-0.299,2.357-0.45,3.558-0.45c1.38,0,2.521,0.557,3.421,1.668c0.9,1.111,1.353,2.357,1.353,3.737         c0,1.923-0.603,3.709-1.802,5.358c-1.202,1.652-2.689,3.108-4.458,4.368c-1.772,1.262-3.693,2.252-5.764,2.974         c-2.072,0.719-3.948,1.081-5.63,1.081c-4.321,0-7.986-0.976-10.988-2.927c-3.002-1.951-5.435-4.472-7.295-7.567         c-1.86-3.092-3.196-6.544-4.008-10.357c-0.809-3.814-1.215-7.611-1.215-11.394c0-2.521,0.239-5.282,0.721-8.286         c0.48-3.001,1.199-6.019,2.162-9.051c0.958-3.032,2.176-5.959,3.647-8.782c1.471-2.821,3.199-5.314,5.18-7.476         c1.981-2.162,4.217-3.902,6.709-5.224c2.491-1.32,5.24-1.981,8.242-1.981c2.941,0,5.405,0.735,7.386,2.206         c1.981,1.473,3.572,3.333,4.774,5.586c1.202,2.25,2.041,4.714,2.521,7.386C334.303,194.117,334.544,196.655,334.544,199.055z         "/>
						</g>
					</g>
				</g>
			</g>
		</g>
		<g>
			<g>
				<g>
					<polygon style="fill:#FFACA9;" points="419.878,429.982 123.464,451.111 123.043,446.076 122.977,445.09 119.478,402.257        135.424,401.257 136.41,401.191 150.305,400.316 151.291,400.25 163.074,399.516 164.08,399.452 177.15,398.635        178.136,398.569 189.056,397.87 189.076,397.872 190.06,397.826 203.955,396.951 204.941,396.885 216.746,396.133        217.73,396.087 230.802,395.25 231.786,395.204 244.917,394.372 245.923,394.307 259.799,393.431 260.804,393.366        272.567,392.631 273.553,392.565 286.643,391.75 287.649,391.685 298.569,390.987 299.574,390.922 313.448,390.066        314.454,390.001 326.219,389.246 327.223,389.202 340.315,388.366 341.3,388.3 352.058,387.63 353.044,387.564 366.9,386.686        367.904,386.641 379.668,385.886 380.674,385.822 393.784,385.008 394.79,384.943 415.2,383.658 419.294,424.174        419.382,425.142      "/>
				</g>
			</g>
			<g>
				<g>
					<g>
						<g>
							<path style="fill:#FFE7E1;" d="M122.642,446.091c-0.243-0.018-0.443-0.213-0.46-0.462c-0.02-0.275,0.187-0.514,0.462-0.532         l296.587-20.93c0.273-0.023,0.514,0.189,0.532,0.462c0.02,0.275-0.187,0.514-0.462,0.532l-296.587,20.93         C122.69,446.093,122.665,446.093,122.642,446.091z"/>
						</g>
					</g>
				</g>
				<g>
					<g>
						<g>
							<g>
								<g>
									<g>
										<g>
											<path style="fill:#FFE7E1;" d="M137.422,414.596c0.019,0.281-0.18,0.527-0.441,0.547l-0.08-0.006             c-0.259-0.019-0.444-0.214-0.466-0.455l-1.01-13.425l0.986-0.066L137.422,414.596z"/>
										</g>
									</g>
								</g>
								<g>
									<g>
										<g>
											<path style="fill:#FFE7E1;" d="M152.775,423.598c-0.001,0.28-0.2,0.525-0.481,0.544l-0.06-0.005             c-0.259-0.019-0.444-0.214-0.464-0.475l-1.464-23.346l0.986-0.066L152.775,423.598z"/>
										</g>
									</g>
								</g>
								<g>
									<g>
										<g>
											<path style="fill:#FFE7E1;" d="M164.569,411.557c0.019,0.282-0.198,0.505-0.48,0.524l-0.06-0.005             c-0.239-0.018-0.444-0.214-0.445-0.474l-0.511-12.087l1.005-0.064L164.569,411.557z"/>
										</g>
									</g>
								</g>
							</g>
							<g>
								<g>
									<g>
										<path style="fill:#FFE7E1;" d="M180.24,424.045c0.019,0.281-0.178,0.507-0.462,0.546l-0.079-0.006            c-0.239-0.018-0.444-0.214-0.446-0.454l-2.103-25.496l0.986-0.066L180.24,424.045z"/>
									</g>
								</g>
							</g>
						</g>
						<g>
							<g>
								<g>
									<g>
										<g>
											<path style="fill:#FFE7E1;" d="M191.092,411.233c0.019,0.281-0.2,0.525-0.461,0.546l-0.08-0.006             c-0.239-0.018-0.444-0.214-0.466-0.455l-1.009-13.445l0.984-0.046L191.092,411.233z"/>
										</g>
									</g>
								</g>
								<g>
									<g>
										<g>
											<path style="fill:#FFE7E1;" d="M206.425,420.233c0.019,0.281-0.198,0.505-0.48,0.524             c-0.02-0.001-0.041,0.017-0.061,0.015c-0.239-0.018-0.443-0.233-0.464-0.475l-1.464-23.346l0.986-0.066L206.425,420.233z             "/>
										</g>
									</g>
								</g>
								<g>
									<g>
										<g>
											<path style="fill:#FFE7E1;" d="M218.219,408.192c0.019,0.282-0.198,0.505-0.48,0.524l-0.06-0.004             c-0.239-0.018-0.443-0.234-0.445-0.474l-0.489-12.105l0.984-0.046L218.219,408.192z"/>
										</g>
									</g>
								</g>
							</g>
							<g>
								<g>
									<g>
										<path style="fill:#FFE7E1;" d="M233.89,420.68c0.02,0.262-0.178,0.507-0.46,0.526c-0.022,0.019-0.041,0.017-0.081,0.014            c-0.239-0.018-0.424-0.212-0.446-0.454l-2.101-25.516l0.984-0.046L233.89,420.68z"/>
									</g>
								</g>
							</g>
						</g>
					</g>
					<g>
						<g>
							<g>
								<g>
									<g>
										<g>
											<path style="fill:#FFE7E1;" d="M246.868,406.747c0.019,0.282-0.2,0.525-0.462,0.546l-0.08-0.006             c-0.239-0.018-0.444-0.214-0.466-0.455l-0.943-12.459l1.005-0.064L246.868,406.747z"/>
										</g>
									</g>
								</g>
								<g>
									<g>
										<g>
											<path style="fill:#FFE7E1;" d="M262.201,415.747c0.019,0.282-0.198,0.505-0.46,0.526l-0.08-0.006             c-0.239-0.018-0.444-0.214-0.466-0.456l-1.397-22.38l1.005-0.064L262.201,415.747z"/>
										</g>
									</g>
								</g>
								<g>
									<g>
										<g>
											<path style="fill:#FFE7E1;" d="M274.015,403.707c-0.001,0.28-0.218,0.504-0.48,0.524l-0.06-0.005             c-0.259-0.019-0.463-0.235-0.465-0.475l-0.443-11.121l0.986-0.066L274.015,403.707z"/>
										</g>
									</g>
								</g>
							</g>
							<g>
								<g>
									<g>
										<path style="fill:#FFE7E1;" d="M289.666,416.194c0.02,0.262-0.178,0.507-0.46,0.526c-0.021,0.019-0.041,0.017-0.081,0.014            c-0.239-0.018-0.424-0.212-0.446-0.454l-2.035-24.53l1.005-0.064L289.666,416.194z"/>
									</g>
								</g>
							</g>
						</g>
						<g>
							<g>
								<g>
									<g>
										<g>
											<path style="fill:#FFE7E1;" d="M300.518,403.382c0.019,0.282-0.18,0.527-0.462,0.546l-0.08-0.006             c-0.239-0.018-0.444-0.214-0.466-0.456l-0.942-12.479l1.005-0.064L300.518,403.382z"/>
										</g>
									</g>
								</g>
								<g>
									<g>
										<g>
											<path style="fill:#FFE7E1;" d="M315.851,412.382c0.019,0.282-0.198,0.505-0.46,0.526l-0.08-0.006             c-0.239-0.018-0.444-0.214-0.466-0.456l-1.397-22.38l1.006-0.064L315.851,412.382z"/>
										</g>
									</g>
								</g>
								<g>
									<g>
										<g>
											<path style="fill:#FFE7E1;" d="M327.665,400.343c0,0.26-0.218,0.504-0.478,0.504l-0.06-0.005             c-0.258-0.019-0.464-0.215-0.465-0.475l-0.443-11.121l1.004-0.044L327.665,400.343z"/>
										</g>
									</g>
								</g>
							</g>
							<g>
								<g>
									<g>
										<path style="fill:#FFE7E1;" d="M343.316,412.829c0.02,0.262-0.178,0.507-0.46,0.526c-0.02-0.001-0.041,0.017-0.061,0.015            c-0.259-0.019-0.444-0.214-0.465-0.475l-2.015-24.528l0.986-0.066L343.316,412.829z"/>
									</g>
								</g>
							</g>
						</g>
					</g>
					<g>
						<g>
							<g>
								<g>
									<g>
										<g>
											<path style="fill:#FFE7E1;" d="M353.948,399.48c0.019,0.281-0.18,0.527-0.461,0.546l-0.08-0.006             c-0.239-0.018-0.424-0.212-0.446-0.454l-0.903-11.936l0.986-0.066L353.948,399.48z"/>
										</g>
									</g>
								</g>
								<g>
									<g>
										<g>
											<path style="fill:#FFE7E1;" d="M369.281,408.48c0.019,0.281-0.178,0.507-0.46,0.526c-0.02-0.002-0.061,0.015-0.081,0.014             c-0.239-0.018-0.443-0.233-0.445-0.474l-1.396-21.86l1.004-0.045L369.281,408.48z"/>
										</g>
									</g>
								</g>
								<g>
									<g>
										<g>
											<path style="fill:#FFE7E1;" d="M381.095,396.44c0.019,0.282-0.198,0.505-0.48,0.524l-0.06-0.005             c-0.239-0.018-0.443-0.233-0.465-0.475l-0.423-10.599l1.006-0.064L381.095,396.44z"/>
										</g>
									</g>
								</g>
							</g>
							<g>
								<g>
									<g>
										<path style="fill:#FFE7E1;" d="M396.766,408.928c0.02,0.262-0.178,0.507-0.46,0.526c-0.021,0.019-0.061,0.015-0.081,0.014            c-0.239-0.018-0.444-0.214-0.466-0.455l-1.975-24.005l1.005-0.064L396.766,408.928z"/>
									</g>
								</g>
							</g>
						</g>
					</g>
				</g>
			</g>
		</g>
		<g>
			<g>
				<g>
					<path style="fill:#FFE7E1;" d="M194.58,106.171c-1.392,0-2.795-0.267-4.131-0.821l-17.045-7.073       c-2.904-1.204-5.143-3.602-6.145-6.581c-1.005-2.976-0.67-6.242,0.914-8.956l28.921-49.582c2.7-4.623,8.291-6.586,13.289-4.681       l7.284,2.786c2.853,1.09,5.131,3.347,6.247,6.191c1.116,2.846,0.979,6.052-0.376,8.794l-19.933,40.369       c-1.315,2.663-3.595,4.632-6.423,5.542c-2.821,0.909-5.822,0.645-8.446-0.752c-5.254-2.795-7.286-9.153-4.623-14.475       l17.88-35.759c0.271-0.538,0.926-0.754,1.454-0.485c0.536,0.267,0.754,0.919,0.485,1.454l-17.88,35.759       c-2.132,4.261-0.506,9.353,3.702,11.589c2.102,1.118,4.505,1.332,6.764,0.603c2.264-0.728,4.09-2.306,5.143-4.437       l19.933-40.369c1.083-2.197,1.192-4.762,0.299-7.04c-0.893-2.278-2.716-4.085-5.001-4.957l-7.284-2.786       c-3.999-1.536-8.481,0.042-10.64,3.748l-28.921,49.582c-1.269,2.171-1.536,4.785-0.733,7.17       c0.803,2.385,2.596,4.305,4.92,5.268l17.045,7.072c3.767,1.566,8.179,0.267,10.499-3.08l33.154-47.782       c0.343-0.489,1.014-0.617,1.51-0.271c0.492,0.341,0.612,1.016,0.271,1.51l-33.154,47.78       C201.486,104.492,198.073,106.171,194.58,106.171z"/>
				</g>
			</g>
		</g>
		<g>
			<g>
				<g>
					<g>
						<path style="fill:#FFACA9;" d="M327.788,71.41c-2.209-1.378-4.964-2.28-7.126-1.117c-2.66,1.425-4.323,4.513-4.086,7.53        c-3.135-3.254-8.242-4.442-12.494-2.874c-4.252,1.544-7.411,5.748-7.696,10.261c-3.801-3.61-9.406-5.463-14.442-4.11        c-5.059,1.354-9.169,6.176-9.05,11.402c-2.684-2.375-6.627-3.207-10.024-2.114c-3.397,1.092-7.268,3.61-8.052,7.102        l1.259-12.423l3.373-33.706l2.661-26.651l22.304,15.843l29.335,20.879L327.788,71.41z"/>
					</g>
				</g>
				<g>
					<g>
						<path style="fill:#7B50B6;" d="M284.415,40.555c-1.354,2.993-3.491,5.582-6.247,7.316c-4.418,2.779-12.423,4.798-18.717,3.492        l2.661-26.651L284.415,40.555z"/>
					</g>
				</g>
				<g>
					<g>
						<path style="fill:#7B50B6;" d="M327.788,71.41c-2.209-1.378-4.964-2.28-7.126-1.117c-2.66,1.425-4.323,4.513-4.086,7.53        c-3.135-3.254-8.242-4.442-12.494-2.874c-4.252,1.544-7.411,5.748-7.696,10.261c-3.801-3.61-9.406-5.463-14.442-4.11        c-5.059,1.354-9.169,6.176-9.05,11.402c-2.684-2.375-6.627-3.207-10.024-2.114c-3.397,1.092-7.268,3.61-8.052,7.102        l1.259-12.423c5.701-1.829,13.729-2.209,18.076-3.468c14.323-4.109,28.338-10.356,39.597-20.166L327.788,71.41z"/>
					</g>
				</g>
			</g>
			<g>
				<g>
					<g>
						<path style="fill:#FFACA9;" d="M399.126,136.663c-0.742-2.495-2.207-4.997-4.597-5.558c-2.937-0.695-6.228,0.515-8.049,2.932        c-0.192-4.515-3.229-8.788-7.453-10.432c-4.207-1.661-9.359-0.606-12.563,2.585c-0.454-5.222-3.424-10.325-8.093-12.648        c-4.686-2.339-10.959-1.45-14.333,2.542c-0.436-3.558-2.838-6.793-6.106-8.226c-3.268-1.433-7.836-2.113-10.737-0.017        l9.175-8.47l24.861-23.008l19.653-18.196l6.205,26.645l8.134,35.076L399.126,136.663z"/>
					</g>
				</g>
				<g>
					<g>
						<path style="fill:#58304D;" d="M387.09,84.814c-2.997,1.344-6.314,1.867-9.527,1.339c-5.15-0.846-12.483-4.638-16.332-9.788        l19.653-18.196L387.09,84.814z"/>
					</g>
				</g>
				<g>
					<g>
						<path style="fill:#58304D;" d="M399.126,136.663c-0.742-2.495-2.207-4.997-4.597-5.558c-2.937-0.695-6.228,0.515-8.049,2.932        c-0.192-4.515-3.229-8.788-7.453-10.432c-4.207-1.661-9.359-0.606-12.563,2.585c-0.454-5.222-3.424-10.325-8.093-12.648        c-4.686-2.339-10.959-1.45-14.333,2.542c-0.436-3.558-2.838-6.793-6.106-8.226c-3.268-1.433-7.836-2.113-10.737-0.017        l9.175-8.47c5.482,2.408,11.746,7.443,15.836,9.381c13.45,6.414,28.085,11.022,43.018,11.136L399.126,136.663z"/>
					</g>
				</g>
			</g>
			<g>
				<g>
					<polygon style="fill:#FFA71D;" points="53.828,207.763 50.964,175.321 70.084,199.601 100.094,191.23 78.955,210.72        95.04,230.623 71.564,219.403 57.173,243.654 55.182,221.547 30.303,220.028 53.833,207.572      "/>
				</g>
			</g>
			<g>
				<g>
					<polygon style="fill:#FFD27B;" points="257.051,435.682 266.156,404.413 275.16,433.976 306.162,437.069 279.391,447.557        287.156,471.941 269.353,452.966 247.141,470.34 253.309,449.017 230.678,438.573 257.125,435.506      "/>
				</g>
			</g>
			<g>
				<g>
					<polygon style="fill:#FFE7E1;" points="433.425,241.269 442.531,210 451.535,239.564 482.536,242.656 455.766,253.144        463.53,277.528 445.727,258.553 423.516,275.927 429.684,254.604 407.052,244.16 433.499,241.093      "/>
				</g>
			</g>
		</g>
	</g>
</g>















</svg>
